<?xml version="1.0" encoding="UTF-8" standalone="no"?>
<!DOCTYPE svg PUBLIC "-//W3C//DTD SVG 1.1//EN" "http://www.w3.org/Graphics/SVG/1.1/DTD/svg11.dtd">
<svg width="100%" height="100%" viewBox="0 0 61 61" version="1.1" xmlns="http://www.w3.org/2000/svg" xmlns:xlink="http://www.w3.org/1999/xlink" xml:space="preserve" xmlns:serif="http://www.serif.com/" style="fill-rule:evenodd;clip-rule:evenodd;stroke-linejoin:round;stroke-miterlimit:1.41421;">
    <g transform="matrix(1,0,0,1,-317.067,-917.093)">
        <g transform="matrix(0.903585,0,0,0.903419,35.5235,93.4635)">
            <circle cx="344.93" cy="945.026" r="33.345" style="fill:rgb(77,82,106);fill-opacity:0.116271;"/>
        </g>
        <g transform="matrix(0.20977,0,0,0.20977,214.778,914.687)">
            <path d="M701.449,218.519C690.105,231.587 673.644,240.684 658.314,245.215C608.599,259.911 556.306,231.479 541.61,181.764C526.914,132.049 555.346,79.756 605.061,65.06C654.809,50.354 707.06,78.762 721.765,128.511L687.773,138.559C678.617,107.584 646.084,89.896 615.109,99.052C584.154,108.202 566.452,140.762 575.602,171.716C584.752,202.671 617.312,220.373 648.266,211.223C658.313,208.253 670.01,202.272 677.347,192.454C677.62,192.089 677.966,191.793 678.262,191.464L651.725,160.502L765.892,187.703L724.506,204.93L728.1,249.614L701.449,218.519Z" style="fill:rgb(29,48,154);"/>
        </g>
        <g transform="matrix(0.084609,0,0,0.084609,276.72,936.542)">
            <path d="M1014.21,193.796L1021.18,215.252L1043.74,215.252L1025.49,228.512L1032.46,249.968L1014.21,236.708L995.96,249.968L1002.93,228.512L984.68,215.252L1007.24,215.252L1014.21,193.796Z" style="fill:rgb(245,206,0);"/>
        </g>
        <g transform="matrix(0.084609,0,0,0.084609,248.166,919.662)">
            <path d="M1014.21,193.796L1021.18,215.252L1043.74,215.252L1025.49,228.512L1032.46,249.968L1014.21,236.708L995.96,249.968L1002.93,228.512L984.68,215.252L1007.24,215.252L1014.21,193.796Z" style="fill:rgb(245,206,0);"/>
        </g>
    </g>
</svg>
