<?xml version="1.0" encoding="UTF-8" standalone="no"?>
<!DOCTYPE svg PUBLIC "-//W3C//DTD SVG 1.1//EN" "http://www.w3.org/Graphics/SVG/1.1/DTD/svg11.dtd">
<svg width="100%" height="100%" viewBox="0 0 150 40" version="1.1" xmlns="http://www.w3.org/2000/svg" xmlns:xlink="http://www.w3.org/1999/xlink" xml:space="preserve" xmlns:serif="http://www.serif.com/" style="fill-rule:evenodd;clip-rule:evenodd;stroke-linejoin:round;stroke-miterlimit:1.41421;">
    <g transform="matrix(1,0,0,1,-77.3134,-943.731)">
        <g transform="matrix(0.20977,0,0,0.20977,-51.4053,745.4)">
            <g transform="matrix(1,0,0,1,562.593,884.289)">
                <path d="M701.449,218.519C690.105,231.587 673.644,240.684 658.314,245.215C608.599,259.911 556.306,231.479 541.61,181.764C526.914,132.049 555.346,79.756 605.061,65.06C654.809,50.354 707.06,78.762 721.765,128.511L687.773,138.559C678.617,107.584 646.084,89.896 615.109,99.052C584.154,108.202 566.452,140.762 575.602,171.716C584.752,202.671 617.312,220.373 648.266,211.223C658.313,208.253 670.01,202.272 677.347,192.454C677.62,192.089 677.966,191.793 678.262,191.464L651.725,160.502L765.892,187.703L724.506,204.93L728.1,249.614L701.449,218.519Z" style="fill:rgb(29,48,154);"/>
            </g>
            <g transform="matrix(1.06958,0,0,1.06958,527.595,853.074)">
                <path d="M212.714,226.933L212.714,258.662L80.427,258.662L80.427,87.813L209.541,87.813L209.541,119.542L119.723,119.542L119.723,156.641L199.046,156.641L199.046,187.394L119.723,187.394L119.723,226.933L212.714,226.933Z" style="fill:rgb(29,48,154);fill-rule:nonzero;"/>
                <path d="M283.738,119.542L283.738,164.695L362.817,164.695L362.817,196.424L283.738,196.424L283.738,258.662L244.199,258.662L244.199,87.813L373.312,87.813L373.312,119.542L283.738,119.542Z" style="fill:rgb(29,48,154);fill-rule:nonzero;"/>
                <path d="M436.77,120.03L382.098,120.03L382.098,87.813L530.981,87.813L530.981,120.03L476.309,120.03L476.309,258.662L436.77,258.662L436.77,120.03Z" style="fill:rgb(29,48,154);fill-rule:nonzero;"/>
            </g>
            <g transform="matrix(0.403343,0,0,0.403343,857.879,988.474)">
                <path d="M1014.21,193.796L1021.18,215.252L1043.74,215.252L1025.49,228.512L1032.46,249.968L1014.21,236.708L995.96,249.968L1002.93,228.512L984.68,215.252L1007.24,215.252L1014.21,193.796Z" style="fill:rgb(245,206,0);"/>
            </g>
            <g transform="matrix(0.403343,0,0,0.403343,721.758,908.004)">
                <path d="M1014.21,193.796L1021.18,215.252L1043.74,215.252L1025.49,228.512L1032.46,249.968L1014.21,236.708L995.96,249.968L1002.93,228.512L984.68,215.252L1007.24,215.252L1014.21,193.796Z" style="fill:rgb(245,206,0);"/>
            </g>
            <g transform="matrix(0.403343,0,0,0.403343,607.528,875.493)">
                <path d="M1014.21,193.796L1021.18,215.252L1043.74,215.252L1025.49,228.512L1032.46,249.968L1014.21,236.708L995.96,249.968L1002.93,228.512L984.68,215.252L1007.24,215.252L1014.21,193.796Z" style="fill:rgb(245,206,0);"/>
            </g>
            <g transform="matrix(0.403343,0,0,0.403343,402.563,878.297)">
                <path d="M1014.21,193.796L1021.18,215.252L1043.74,215.252L1025.49,228.512L1032.46,249.968L1014.21,236.708L995.96,249.968L1002.93,228.512L984.68,215.252L1007.24,215.252L1014.21,193.796Z" style="fill:rgb(245,206,0);"/>
            </g>
            <g transform="matrix(0.403343,0,0,0.403343,225.893,947.227)">
                <path d="M1014.21,193.796L1021.18,215.252L1043.74,215.252L1025.49,228.512L1032.46,249.968L1014.21,236.708L995.96,249.968L1002.93,228.512L984.68,215.252L1007.24,215.252L1014.21,193.796Z" style="fill:rgb(245,206,0);"/>
            </g>
        </g>
    </g>
</svg>
